<?xml version="1.0" encoding="UTF-8" standalone="no"?>
<svg
   xmlns:dc="http://purl.org/dc/elements/1.1/"
   xmlns:cc="http://creativecommons.org/ns#"
   xmlns:rdf="http://www.w3.org/1999/02/22-rdf-syntax-ns#"
   xmlns:svg="http://www.w3.org/2000/svg"
   xmlns="http://www.w3.org/2000/svg"
   xmlns:sodipodi="http://sodipodi.sourceforge.net/DTD/sodipodi-0.dtd"
   xmlns:inkscape="http://www.inkscape.org/namespaces/inkscape"
   width="164"
   height="30"
   version="1.1"
   id="svg112"
   sodipodi:docname="eUS.svg"
   inkscape:version="1.0.2 (e86c870879, 2021-01-15, custom)">
  <metadata
     id="metadata118">
    <rdf:RDF>
      <cc:Work
         rdf:about="">
        <dc:format>image/svg+xml</dc:format>
        <dc:type
           rdf:resource="http://purl.org/dc/dcmitype/StillImage" />
      </cc:Work>
    </rdf:RDF>
  </metadata>
  <defs
     id="defs116" />
  <sodipodi:namedview
     pagecolor="#ffffff"
     bordercolor="#666666"
     borderopacity="1"
     objecttolerance="10"
     gridtolerance="10"
     guidetolerance="10"
     inkscape:pageopacity="0"
     inkscape:pageshadow="2"
     inkscape:window-width="1920"
     inkscape:window-height="1001"
     id="namedview114"
     showgrid="false"
     showguides="true"
     inkscape:guide-bbox="true"
     inkscape:zoom="9.0121951"
     inkscape:cx="82"
     inkscape:cy="15"
     inkscape:window-x="-9"
     inkscape:window-y="-9"
     inkscape:window-maximized="1"
     inkscape:current-layer="svg_1">
    <sodipodi:guide
       position="16.533153,60.403248"
       orientation="0,-1"
       id="guide182" />
  </sodipodi:namedview>
  <style
     type="text/css"
     id="style96">.st0{fill:#FFFFFF;}</style>
  <g
     id="g101">
    <title
       id="title98">background</title>
    <rect
       fill="none"
       id="canvas_background"
       height="32"
       width="166"
       y="-1"
       x="-1" />
  </g>
  <g
     id="g110"
     style="fill:#b3b3b3">
    <title
       id="title103">Layer 1</title>
    <g
       id="svg_1"
       style="fill:#b3b3b3">
      <g
         id="svg_2"
         style="fill:#ffffff">
        <path
           id="svg_3"
           d="m 159.6,10.8 -2.3,5.3 -2.3,-5.3 h -1.8 l 3.1,7.2 -0.1,0.3 c -0.3,0.7 -0.7,1 -1.3,1 -0.5,0 -0.9,-0.2 -1.2,-0.5 L 153,20 c 0.5,0.4 1.2,0.7 1.9,0.7 1.2,0 2.1,-0.5 2.8,-2.1 l 3.4,-7.8 h -1.5 z m -7.6,0 -2,5.3 -1.9,-5.3 h -1.4 l -2,5.3 -1.9,-5.3 h -1.6 l 2.6,7.2 h 1.6 l 1.9,-5 1.9,5 h 1.6 l 2.7,-7.2 z m -15,5.8 c -1.2,0 -2.1,-0.9 -2.1,-2.2 0,-1.4 0.9,-2.2 2.1,-2.2 1.2,0 2.1,0.9 2.1,2.2 0,1.3 -0.9,2.2 -2.1,2.2 m 0,1.5 c 2.2,0 3.8,-1.5 3.8,-3.7 0,-2.2 -1.6,-3.7 -3.8,-3.7 -2.2,0 -3.8,1.5 -3.8,3.7 0,2.1 1.6,3.7 3.8,3.7 m -8.7,-1.5 c -1.2,0 -2.1,-0.9 -2.1,-2.2 0,-1.4 0.9,-2.2 2.1,-2.2 1.2,0 2.1,0.9 2.1,2.2 0.1,1.3 -0.9,2.2 -2.1,2.2 m 0.2,-5.9 c -0.9,0 -1.7,0.3 -2.3,1 V 8 h -1.7 v 10 h 1.6 v -0.9 c 0.6,0.7 1.4,1 2.4,1 2.1,0 3.6,-1.5 3.6,-3.7 0.1,-2.3 -1.5,-3.7 -3.6,-3.7 m -8,1.1 v -1 h -1.6 V 18 h 1.7 v -3.5 c 0,-1.5 0.8,-2.2 2.1,-2.2 0.1,0 0.2,0 0.4,0 v -1.6 c -1.2,0 -2.1,0.4 -2.6,1.1 m -7.2,5 c -0.9,0 -1.4,-0.4 -1.4,-1 0,-0.5 0.3,-1 1.5,-1 h 1.7 v 0.8 c -0.3,0.9 -1,1.2 -1.8,1.2 m 0.2,-6.1 c -1.2,0 -2.3,0.3 -3,0.9 l 0.7,1.2 c 0.5,-0.4 1.4,-0.7 2.2,-0.7 1.2,0 1.8,0.6 1.8,1.6 v 0.1 h -1.9 c -2.2,0 -3,0.9 -3,2.1 0,1.3 1,2.2 2.7,2.2 1.1,0 1.9,-0.4 2.3,-1 V 18 h 1.6 v -4.2 c -0.1,-2.1 -1.3,-3.1 -3.4,-3.1 m -5.7,7.3 h 2 l -3.3,-4.2 3,-3 h -2 L 104,14 V 8 h -1.7 v 10 h 1.7 v -1.9 l 1.3,-1.2 z m -10.9,0.1 c 2.6,0 3.8,-1.3 3.8,-2.8 0,-3.5 -5.6,-2.2 -5.6,-4.2 0,-0.7 0.6,-1.3 2,-1.3 0.8,0 1.8,0.2 2.6,0.7 l 0.6,-1.4 c -0.8,-0.5 -2,-0.8 -3.1,-0.8 -2.6,0 -3.8,1.3 -3.8,2.8 0,3.5 5.6,2.2 5.6,4.2 0,0.7 -0.6,1.2 -2.1,1.2 -1.2,0 -2.4,-0.4 -3.1,-1 l -0.6,1.4 c 0.8,0.7 2.3,1.2 3.7,1.2"
           class="st0"
           style="fill:#ffffff" />
        <path
           id="svg_4"
           d="m 82.7,16.7 c -1.2,0 -2.1,-0.9 -2.1,-2.2 0,-1.4 0.9,-2.2 2.1,-2.2 1.2,0 2.1,0.9 2.1,2.2 0.1,1.3 -0.9,2.2 -2.1,2.2 M 84.8,8 v 3.7 c -0.6,-0.7 -1.4,-1 -2.3,-1 -2.1,0 -3.6,1.4 -3.6,3.7 0,2.2 1.5,3.7 3.6,3.7 1,0 1.8,-0.3 2.4,-1 V 18 h 1.6 V 8 Z m -11,8.9 c -0.9,0 -1.4,-0.4 -1.4,-1 0,-0.5 0.3,-1 1.5,-1 h 1.7 v 0.8 c -0.3,0.8 -1,1.2 -1.8,1.2 m 3.5,3 c -0.2,0.1 -0.5,0.2 -0.8,0.2 -0.5,0 -0.8,-0.2 -0.8,-0.7 0,-0.5 0.4,-1 1.6,-1.5 v -4.2 c 0,-2.1 -1.2,-3.1 -3.3,-3.1 -1.2,0 -2.3,0.3 -3,0.9 l 0.7,1.2 c 0.5,-0.4 1.4,-0.7 2.2,-0.7 1.2,0 1.8,0.6 1.8,1.6 v 0.1 h -1.9 c -2.2,0 -3,0.9 -3,2.1 0,1.3 1,2.2 2.7,2.2 1.1,0 1.9,-0.3 2.3,-1 v 0.8 c -0.8,0.5 -1.1,1.1 -1.1,1.7 0,0.8 0.6,1.4 1.7,1.4 0.5,0 0.9,-0.1 1.3,-0.3 z m -11.7,-3.2 4,-4.8 v -1.1 h -6 v 1.3 h 3.9 l -3.9,4.8 V 18 h 6.2 V 16.7 Z M 60,11.9 V 10.8 H 58.4 V 18 h 1.7 v -3.5 c 0,-1.5 0.8,-2.2 2.1,-2.2 0.1,0 0.2,0 0.4,0 v -1.6 c -1.2,0 -2.1,0.4 -2.6,1.2 m -8,6.2 c 2.6,0 4.1,-1.5 4.1,-4.2 V 8.6 h -1.7 v 5.3 c 0,1.9 -0.9,2.8 -2.4,2.8 -1.5,0 -2.4,-0.8 -2.4,-2.8 V 8.6 h -1.7 v 5.3 c 0,2.7 1.5,4.2 4.1,4.2 M 42.2,15 h 3.7 v -1.4 h -3.7 z m -5,-2.9 c 1.1,0 1.9,0.7 2,1.8 h -4.1 c 0.2,-1.1 1,-1.8 2.1,-1.8 m 3.7,2.3 c 0,-2.2 -1.5,-3.7 -3.6,-3.7 -2.1,0 -3.7,1.5 -3.7,3.7 0,2.2 1.6,3.7 4,3.7 1.2,0 2.2,-0.4 2.9,-1.2 l -0.9,-1 c -0.5,0.5 -1.1,0.8 -2,0.8 -1.3,0 -2.1,-0.7 -2.3,-1.7 h 5.6 c -0.1,-0.2 0,-0.4 0,-0.6"
           class="st0"
           style="fill:#ffffff" />
        <path
           id="svg_5"
           d="m14.6,1.6c-3.6,0 -6.5,2.9 -6.5,6.5s2.9,6.5 6.5,6.5s6.5,-2.9 6.5,-6.5s-2.9,-6.5 -6.5,-6.5m0,16.3c-4.3,0 -13,2.2 -13,6.5l0,3.3l26.1,0l0,-3.3c-0.1,-4.3 -8.8,-6.5 -13.1,-6.5"
           class="st0"
           style="fill:#ffffff" />
      </g>
    </g>
  </g>
</svg>
