<svg width="31.9" height="32.7" xmlns="http://www.w3.org/2000/svg">
 <style type="text/css">.st0{fill:#FFFFFF;}</style>

 <g>
  <title>background</title>
  <rect fill="none" id="canvas_background" height="34.7" width="33.9" y="-1" x="-1"/>
 </g>
 <g>
  <title>Layer 1</title>
  <path id="svg_1" d="m21,19.1l-1.2,0l-0.4,-0.4c1.6,-1.8 2.5,-4.2 2.5,-6.6c0,-5.6 -4.6,-10.1 -10.2,-10.1s-10.1,4.5 -10.1,10.1c0,5.6 4.6,10.1 10.2,10.1c2.4,0 4.7,-0.9 6.5,-2.4l0.4,0.4l0,1.2l8.6,8.8l2.3,-2.3l-8.6,-8.8zm-9.4,0c-3.9,0 -7,-3.1 -7,-7s3.1,-7 7,-7s7,3.1 7,7s-3.1,7 -7,7" class="st0"/>
 </g>
</svg>