<?xml version="1.0" encoding="UTF-8" standalone="no"?>
<svg
   xmlns:dc="http://purl.org/dc/elements/1.1/"
   xmlns:cc="http://creativecommons.org/ns#"
   xmlns:rdf="http://www.w3.org/1999/02/22-rdf-syntax-ns#"
   xmlns:svg="http://www.w3.org/2000/svg"
   xmlns="http://www.w3.org/2000/svg"
   xmlns:sodipodi="http://sodipodi.sourceforge.net/DTD/sodipodi-0.dtd"
   xmlns:inkscape="http://www.inkscape.org/namespaces/inkscape"
   width="305"
   height="30"
   version="1.1"
   id="svg174"
   sodipodi:docname="wizyta.svg"
   inkscape:version="1.0.2 (e86c870879, 2021-01-15, custom)">
  <metadata
     id="metadata180">
    <rdf:RDF>
      <cc:Work
         rdf:about="">
        <dc:format>image/svg+xml</dc:format>
        <dc:type
           rdf:resource="http://purl.org/dc/dcmitype/StillImage" />
      </cc:Work>
    </rdf:RDF>
  </metadata>
  <defs
     id="defs178" />
  <sodipodi:namedview
     pagecolor="#ffffff"
     bordercolor="#666666"
     borderopacity="1"
     objecttolerance="10"
     gridtolerance="10"
     guidetolerance="10"
     inkscape:pageopacity="0"
     inkscape:pageshadow="2"
     inkscape:window-width="1920"
     inkscape:window-height="1001"
     id="namedview176"
     showgrid="false"
     inkscape:zoom="4.8459016"
     inkscape:cx="152.5"
     inkscape:cy="15"
     inkscape:window-x="-9"
     inkscape:window-y="-9"
     inkscape:window-maximized="1"
     inkscape:current-layer="svg_1" />
  <style
     type="text/css"
     id="style151">.st0{fill:#FFFFFF;}</style>
  <g
     id="g156">
    <title
       id="title153">background</title>
    <rect
       fill="none"
       id="canvas_background"
       height="32"
       width="307"
       y="-1"
       x="-1" />
  </g>
  <g
     id="g172"
     style="fill:#b3b3b3">
    <title
       id="title158">Layer 1</title>
    <g
       id="svg_1"
       style="fill:#b3b3b3">
      <g
         id="svg_2"
         style="fill:#ffffff">
        <path
           id="svg_3"
           d="m 300.39592,10.7 c -1.1,0 -2.1,0.5 -2.7,1.2 -0.5,-0.8 -1.4,-1.2 -2.4,-1.2 -1,0 -1.8,0.3 -2.4,1 v -0.9 h -1.6 V 18 h 1.7 v -3.6 c 0,-1.4 0.8,-2.2 1.9,-2.2 1,0 1.6,0.6 1.6,1.9 V 18 h 1.7 v -3.7 c 0,-1.4 0.8,-2.2 1.9,-2.2 1,0 1.6,0.6 1.6,1.9 v 3.9 h 1.7 v -4.1 c -0.1,-2.1 -1.3,-3.1 -3,-3.1 m -11.8,0.1 -2.3,5.3 -2.3,-5.3 h -1.8 l 3.1,7.2 -0.1,0.3 c -0.3,0.7 -0.7,1 -1.3,1 -0.5,0 -0.9,-0.2 -1.2,-0.5 l -0.7,1.2 c 0.5,0.4 1.2,0.7 1.9,0.7 1.2,0 2.1,-0.5 2.8,-2.1 l 3.4,-7.8 h -1.5 z m -7.6,0 -2,5.3 -1.9,-5.3 h -1.4 l -2,5.3 -1.9,-5.3 h -1.6 l 2.6,7.2 h 1.6 l 1.9,-5 1.9,5 h 1.6 l 2.7,-7.2 z m -15,5.9 c -1.2,0 -2.1,-0.9 -2.1,-2.2 0,-1.4 0.9,-2.2 2.1,-2.2 1.2,0 2.1,0.9 2.1,2.2 0.1,1.3 -0.8,2.2 -2.1,2.2 m 0,1.4 c 2.2,0 3.8,-1.5 3.8,-3.7 0,-2.2 -1.6,-3.7 -3.8,-3.7 -2.2,0 -3.8,1.5 -3.8,3.7 0,2.2 1.6,3.7 3.8,3.7 m -8.6,-1.4 c -1.2,0 -2.1,-0.9 -2.1,-2.2 0,-1.4 0.9,-2.2 2.1,-2.2 1.2,0 2.1,0.9 2.1,2.2 0,1.3 -0.9,2.2 -2.1,2.2 m 0.1,-6 c -0.9,0 -1.7,0.3 -2.3,1 V 8 h -1.7 v 10 h 1.6 v -0.9 c 0.6,0.7 1.4,1 2.4,1 2.1,0 3.6,-1.5 3.6,-3.7 0.1,-2.2 -1.5,-3.7 -3.6,-3.7 m -7.9,1.2 v -1 h -1.6 v 7.2 h 1.7 v -3.5 c 0,-1.5 0.8,-2.2 2.1,-2.2 0.1,0 0.2,0 0.4,0 v -1.6 c -1.3,-0.1 -2.1,0.3 -2.6,1.1 m -7.3,5 c -0.9,0 -1.4,-0.4 -1.4,-1 0,-0.5 0.3,-1 1.5,-1 h 1.7 v 0.8 c -0.3,0.8 -1,1.2 -1.8,1.2 m 0.2,-6.2 c -1.2,0 -2.3,0.3 -3,0.9 l 0.7,1.2 c 0.5,-0.4 1.4,-0.7 2.2,-0.7 1.2,0 1.8,0.6 1.8,1.6 v 0.1 h -1.9 c -2.2,0 -3,0.9 -3,2.1 0,1.3 1,2.2 2.7,2.2 1.1,0 1.9,-0.4 2.3,-1 V 18 h 1.6 v -4.2 c -0.1,-2.1 -1.3,-3.1 -3.4,-3.1 m -5.7,7.3 h 2 l -3.3,-4.2 3,-3 h -2 l -3.5,3.2 V 8 h -1.7 v 10 h 1.7 v -1.9 l 1.3,-1.2 z m -10.1,0.1 c 2,0 3.3,-0.9 3.3,-2.2 0,-2.8 -4.4,-1.5 -4.4,-3 0,-0.5 0.5,-0.8 1.5,-0.8 0.7,0 1.4,0.1 2.1,0.5 l 0.6,-1.3 c -0.6,-0.4 -1.7,-0.6 -2.7,-0.6 -1.9,0 -3.2,0.9 -3.2,2.2 0,2.9 4.4,1.6 4.4,2.9 0,0.5 -0.4,0.8 -1.5,0.8 -0.9,0 -1.9,-0.3 -2.5,-0.7 l -0.6,1.3 c 0.6,0.6 1.8,0.9 3,0.9"
           class="st0"
           style="fill:#ffffff" />
        <path
           id="svg_4"
           d="m 214.29592,12.4 c 1.1,0 1.9,0.7 2,1.8 h -4.1 c 0.3,-1.1 1.1,-1.8 2.1,-1.8 m 3.7,2.4 c 0,-2.2 -1.5,-3.7 -3.6,-3.7 -2.1,0 -3.7,1.5 -3.7,3.7 0,2.2 1.6,3.7 4,3.7 1.2,0 2.2,-0.4 2.9,-1.2 l -0.9,-1 c -0.5,0.5 -1.1,0.8 -2,0.8 -1.3,0 -2.1,-0.7 -2.3,-1.7 h 5.6 c 0,-0.3 0,-0.5 0,-0.6 m -10.7,3.6 h 1.7 v -7.2 h -1.7 z m 0.9,-8.4 c 0.6,0 1.1,-0.5 1.1,-1 0,-0.6 -0.5,-1 -1.1,-1 -0.6,0 -1.1,0.4 -1.1,1 0,0.5 0.5,1 1.1,1 m -6.5,7 4,-4.8 v -1.1 h -6 v 1.3 h 3.9 l -3.9,4.8 v 1.1 h 6.2 V 17 Z m -7.5,0 c -1.2,0 -2.1,-0.9 -2.1,-2.2 0,-1.3 0.9,-2.2 2.1,-2.2 1.2,0 2.1,0.9 2.1,2.2 0,1.3 -0.9,2.2 -2.1,2.2 m 2.1,-8.6 v 3.7 c -0.6,-0.7 -1.4,-1 -2.3,-1 -2.1,0 -3.6,1.4 -3.6,3.7 0,2.2 1.5,3.7 3.6,3.7 1,0 1.8,-0.3 2.4,-1 v 0.9 h 1.6 v -10 h -1.7 z m -10.6,4 c 1.1,0 1.9,0.7 2,1.8 h -4.1 c 0.2,-1.1 1,-1.8 2.1,-1.8 m 3.6,2.4 c 0,-2.2 -1.5,-3.7 -3.6,-3.7 -2.1,0 -3.7,1.5 -3.7,3.7 0,2.2 1.6,3.7 4,3.7 0.1,0 0.2,0 0.4,0 -0.4,0.5 -0.6,1 -0.6,1.5 0,0.9 0.7,1.5 1.7,1.5 0.5,0 1,-0.1 1.3,-0.3 l -0.3,-0.8 c -0.2,0.1 -0.5,0.2 -0.8,0.2 -0.5,0 -0.8,-0.2 -0.8,-0.7 0,-0.5 0.3,-1.1 1.5,-2 0.2,-0.1 0.4,-0.3 0.5,-0.5 l -0.9,-1 c -0.5,0.5 -1.1,0.8 -2,0.8 -1.3,0 -2.1,-0.7 -2.3,-1.7 h 5.6 c 0,-0.4 0,-0.6 0,-0.7 m -12.3,2.2 4,-4.8 v -1.1 h -6 v 1.3 h 3.9 l -3.9,4.8 v 1.1 h 6.2 V 17 Z m -5.6,-4.8 v -1 h -1.6 v 7.2 h 1.7 v -3.5 c 0,-1.5 0.8,-2.2 2.1,-2.2 0.1,0 0.2,0 0.4,0 v -1.6 c -1.2,0 -2.1,0.4 -2.6,1.1 m -5.5,-1 v 3.6 c 0,1.4 -0.8,2.2 -2,2.2 -1.1,0 -1.7,-0.6 -1.7,-1.9 v -3.9 h -1.7 v 4.1 c 0,2.2 1.3,3.2 3.1,3.2 0.9,0 1.8,-0.4 2.3,-1 v 0.9 h 1.6 v -7.2 h -1.6 z m -11.6,0 -2,5.3 -1.9,-5.3 h -1.4 l -2,5.3 -1.9,-5.3 h -1.6 l 2.6,7.2 h 1.6 l 1.9,-5 1.9,5 h 1.6 l 2.7,-7.2 z"
           class="st0"
           style="fill:#ffffff" />
        <path
           id="svg_5"
           d="m 135.09592,12.5 c 1.1,0 1.9,0.7 2,1.8 h -4.1 c 0.3,-1.1 1.1,-1.8 2.1,-1.8 m 3.7,2.4 c 0,-2.2 -1.5,-3.7 -3.6,-3.7 -2.1,0 -3.7,1.5 -3.7,3.7 0,2.2 1.6,3.7 4,3.7 0.1,0 0.2,0 0.4,0 -0.4,0.5 -0.6,1 -0.6,1.5 0,0.9 0.7,1.5 1.7,1.5 0.5,0 1,-0.1 1.3,-0.3 l -0.3,-0.8 c -0.2,0.1 -0.5,0.2 -0.8,0.2 -0.5,0 -0.8,-0.2 -0.8,-0.7 0,-0.5 0.3,-1.1 1.5,-2 0.2,-0.1 0.4,-0.3 0.5,-0.5 l -0.9,-1 c -0.5,0.5 -1.1,0.8 -2,0.8 -1.3,0 -2.1,-0.7 -2.3,-1.7 h 5.6 c 0,-0.4 0,-0.6 0,-0.7 m -8.4,2 c -0.3,0.2 -0.6,0.3 -0.9,0.3 -0.6,0 -1,-0.4 -1,-1.1 v -3.4 h 1.9 v -1.3 h -1.9 V 9.8 h -1.7 v 1.6 h -1.2 v 1.3 h 1.2 v 3.5 c 0,1.6 0.9,2.4 2.5,2.4 0.6,0 1.2,-0.2 1.6,-0.5 z m -6.7,-5.6 -2.3,5.3 -2.3,-5.3 h -1.8 l 3.1,7.2 -0.1,0.3 c -0.3,0.7 -0.7,1 -1.3,1 -0.5,0 -0.9,-0.2 -1.2,-0.5 l -0.7,1.2 c 0.5,0.4 1.2,0.7 1.9,0.7 1.2,0 2.1,-0.5 2.8,-2.1 l 3.4,-7.8 h -1.5 z m -10.6,5.8 4,-4.8 v -1.1 h -6 v 1.3 h 3.9 l -3.9,4.8 v 1.1 h 6.2 v -1.3 z m -5.5,1.4 h 1.7 v -7.2 h -1.7 z m 0.9,-8.4 c 0.6,0 1.1,-0.5 1.1,-1.1 0,-0.6 -0.5,-1 -1.1,-1 -0.6,0 -1.1,0.4 -1.1,1 0,0.6 0.5,1.1 1.1,1.1 m -3.5,1.2 -2,5.3 -1.9,-5.3 h -1.4 l -2,5.3 -1.9,-5.3 h -1.6 l 2.6,7.2 h 1.6 l 1.9,-5 1.9,5 h 1.6 l 2.7,-7.2 z m -16.7,0 -2,5.3 -1.9,-5.3 h -1.4 l -2,5.3 -1.9,-5.3 h -1.6 l 2.6,7.2 h 1.6 l 1.9,-5 1.9,5 h 1.6 l 2.7,-7.2 z m -15,5.8 c -1.2,0 -2.1,-0.9 -2.1,-2.2 0,-1.4 0.9,-2.2 2.1,-2.2 1.2,0 2.1,0.9 2.1,2.2 0.1,1.3 -0.8,2.2 -2.1,2.2 m 0,1.4 c 2.2,0 3.8,-1.5 3.8,-3.7 0,-2.2 -1.6,-3.7 -3.8,-3.7 -2.2,0 -3.8,1.5 -3.8,3.7 0,2.2 1.6,3.7 3.8,3.7 m -1.1,-8.2 h 1.5 l 2.3,-1.8 h -2 z m -7.3,0.9 c -1.1,0 -2.1,0.5 -2.7,1.2 -0.5,-0.8 -1.4,-1.2 -2.4,-1.2 -1,0 -1.8,0.3 -2.4,1 v -0.9 h -1.6 v 7.2 h 1.7 v -3.6 c 0,-1.4 0.8,-2.2 1.9,-2.2 1,0 1.6,0.6 1.6,1.9 v 3.9 h 1.7 v -3.6 c 0,-1.4 0.8,-2.2 1.9,-2.2 1,0 1.6,0.6 1.6,1.9 v 3.9 h 1.7 v -4.1 c 0,-2.2 -1.2,-3.2 -3,-3.2 m -15.5,7.4 c 2.6,0 4.1,-1.5 4.1,-4.2 V 9.1 h -1.7 v 5.3 c 0,1.9 -0.9,2.8 -2.4,2.8 -1.5,0 -2.4,-0.8 -2.4,-2.8 V 9.1 h -1.7 v 5.3 c 0,2.7 1.6,4.2 4.1,4.2"
           class="st0"
           style="fill:#ffffff" />
        <path
           id="svg_6"
           d="m33.19592,22.56735c0,0.3 0,0.6 -0.2,0.9l-2.7,3.7c-0.2,0.3 -0.6,0.5 -1,0.5c-0.5,0 -0.9,-0.2 -1.1,-0.6l-1.6,-3.1c-0.1,-0.2 -0.1,-0.4 -0.1,-0.6c-0.1,-0.4 0.1,-0.7 0.5,-0.9c0,0 0,0 0.1,0l0.1,-0.1c0.6,-0.3 1.3,-0.1 1.6,0.5l0.7,1.4l1.6,-2.2c0.2,-0.3 0.5,-0.4 0.8,-0.5c0.2,0 0.4,0 0.5,0c0.2,0 0.3,0 0.5,0.2c0.2,0.2 0.3,0.5 0.3,0.8l0,0m2.7,1.7c0,-3.2 -2.6,-5.8 -5.8,-5.8s-5.8,2.6 -5.8,5.8c0,3.2 2.6,5.8 5.8,5.8c3.3,-0.1 5.8,-2.6 5.8,-5.8"
           class="st0"
           style="fill:#ffffff" />
        <path
           id="svg_7"
           d="m9.39592,15.16735c0.9,0 1.5,-0.7 1.5,-1.5c0,-0.9 -0.7,-1.5 -1.5,-1.5s-1.5,0.7 -1.5,1.5c0,0.9 0.7,1.5 1.5,1.5"
           class="st0"
           style="fill:#ffffff" />
        <path
           id="svg_8"
           d="m17.49592,15.16735c0.9,0 1.5,-0.7 1.5,-1.5c0,-0.9 -0.7,-1.5 -1.5,-1.5s-1.5,0.7 -1.5,1.5c0,0.9 0.7,1.5 1.5,1.5"
           class="st0"
           style="fill:#ffffff" />
        <path
           id="svg_9"
           d="m25.59592,15.16735c0.9,0 1.5,-0.7 1.5,-1.5c0,-0.9 -0.7,-1.5 -1.5,-1.5s-1.5,0.7 -1.5,1.5c0,0.9 0.7,1.5 1.5,1.5"
           class="st0"
           style="fill:#ffffff" />
        <path
           id="svg_10"
           d="m9.39592,21.76735c0.9,0 1.5,-0.7 1.5,-1.5c0,-0.9 -0.7,-1.5 -1.5,-1.5s-1.5,0.7 -1.5,1.5s0.7,1.5 1.5,1.5"
           class="st0"
           style="fill:#ffffff" />
        <path
           id="svg_11"
           d="m17.49592,21.76735c0.9,0 1.5,-0.7 1.5,-1.5c0,-0.9 -0.7,-1.5 -1.5,-1.5c-0.9,0 -1.5,0.7 -1.5,1.5s0.7,1.5 1.5,1.5"
           class="st0"
           style="fill:#ffffff" />
        <path
           id="svg_12"
           d="m3.39592,2.86735c0,-0.4 0.3,-0.7 0.7,-0.7l26.9,0c0.4,0 0.7,0.3 0.7,0.7l0,3.3l-28.2,0l-0.1,-3.3l0,0zm18.2,22.7l-17.5,0c-0.4,0 -0.7,-0.3 -0.7,-0.7l0,-16.4l28.2,0l0,7.4c0.8,0.2 1.6,0.5 2.3,0.9l0,-14c0,-1.7 -1.3,-3 -3,-3l-26.9,0c-1.7,0 -3,1.3 -3,3l0,22c0,1.7 1.3,3 3,3l18.2,0c-0.3,-0.6 -0.5,-1.4 -0.6,-2.2"
           class="st0"
           style="fill:#ffffff" />
      </g>
    </g>
  </g>
</svg>
